<svg width="32" height="32" viewBox="0 0 32 32" fill="none" xmlns="http://www.w3.org/2000/svg">
<path d="M9.33333 29.3333C8.6 29.3333 7.97222 29.0722 7.45 28.55C6.92777 28.0277 6.66666 27.4 6.66666 26.6666C6.66666 25.9333 6.92777 25.3055 7.45 24.7833C7.97222 24.2611 8.6 24 9.33333 24C10.0667 24 10.6944 24.2611 11.2167 24.7833C11.7389 25.3055 12 25.9333 12 26.6666C12 27.4 11.7389 28.0277 11.2167 28.55C10.6944 29.0722 10.0667 29.3333 9.33333 29.3333ZM22.6667 29.3333C21.9333 29.3333 21.3056 29.0722 20.7833 28.55C20.2611 28.0277 20 27.4 20 26.6666C20 25.9333 20.2611 25.3055 20.7833 24.7833C21.3056 24.2611 21.9333 24 22.6667 24C23.4 24 24.0278 24.2611 24.55 24.7833C25.0722 25.3055 25.3333 25.9333 25.3333 26.6666C25.3333 27.4 25.0722 28.0277 24.55 28.55C24.0278 29.0722 23.4 29.3333 22.6667 29.3333ZM8.2 7.99996L11.4 14.6666H20.7333L24.4 7.99996H8.2ZM6.93333 5.33329H26.6C27.1111 5.33329 27.5 5.56107 27.7667 6.01663C28.0333 6.47218 28.0444 6.93329 27.8 7.39996L23.0667 15.9333C22.8222 16.3777 22.4944 16.7222 22.0833 16.9666C21.6722 17.2111 21.2222 17.3333 20.7333 17.3333H10.8L9.33333 20H25.3333V22.6666H9.33333C8.33333 22.6666 7.57777 22.2277 7.06666 21.35C6.55555 20.4722 6.53333 19.6 7 18.7333L8.8 15.4666L3.99999 5.33329H1.33333V2.66663H5.66666L6.93333 5.33329Z" fill="#EDEDED"/>
</svg>
