<svg width="156" height="40" viewBox="0 0 156 40" fill="none" xmlns="http://www.w3.org/2000/svg">
<mask id="mask0_4043_155" style="mask-type:alpha" maskUnits="userSpaceOnUse" x="0" y="0" width="156" height="40">
<rect width="156" height="40" fill="#D9D9D9"/>
</mask>
<g mask="url(#mask0_4043_155)">
</g>
<g clip-path="url(#clip0_4043_155)">
<path d="M35.1024 0H10.7702V10.7671H4.53717L0 15.3014V35.051L4.53717 39.6268H28.8694V28.8596H35.1024L39.6396 24.2839V4.53429L35.1024 0ZM24.2923 35.051H4.53717V15.3014H10.7702V28.8596H24.2923V35.051ZM24.2923 24.2839H15.3488V15.3014H24.2923V24.2839ZM35.1024 24.2839H28.8694V10.7671H15.3488V4.53429H35.1024V24.2839Z" fill="white"/>
<path d="M144.937 37.9969V40.0017H155.09V37.9969H144.937Z" fill="white"/>
<path d="M65.4794 0.236084L68.166 2.92189V14.6189L65.4794 17.3286H51.0687V0.236084H65.4794ZM53.7792 14.6189H65.4794V2.92189H53.7792V14.6189Z" fill="white"/>
<path d="M69.388 17.3302V0.236084H86.5348V2.92189H72.0985V7.44023H86.5348V10.126H72.0985V14.6189H86.5348V17.3286H69.388V17.3302Z" fill="white"/>
<path d="M87.7568 8.68584V0.236084H90.4689V7.61088L96.3063 13.52L102.169 7.63481V0.236084H104.856V8.75761L96.3063 17.3286L87.7568 8.68425V8.68584Z" fill="white"/>
<path d="M119.654 17.7846V0.692139H136.801V3.37794H122.365V7.89628H136.801V10.5821H122.365V15.0749H136.801V17.7846H119.654Z" fill="white"/>
<path d="M146.572 9.26311L155.122 0.692139V17.7846H152.435V7.21207L146.572 13.0733L140.735 7.21207V17.7846H138.023V0.692139L146.572 9.26311Z" fill="white"/>
<path d="M65.4794 22.5549L68.166 25.2407V36.9377L65.4794 39.6474H51.0687V22.5549H65.4794ZM53.7792 36.9377H65.4794V25.2407H53.7792V36.9377Z" fill="white"/>
<path d="M83.7988 22.5549L86.4853 25.2407V36.9616L83.7988 39.6474H72.0746L69.388 36.9377V25.2407L72.0746 22.5549H83.7988ZM72.0985 36.9377H83.7988V25.2407H72.0985V36.9377Z" fill="white"/>
<path d="M87.7074 39.6491V22.5566H102.094L104.806 25.2424V28.3924L102.094 31.1021L104.806 33.7879V36.9378L102.12 39.6476H87.709L87.7074 39.6491ZM102.094 29.7592V25.2409H90.4195V29.7592H102.094ZM102.094 36.9378V32.445H90.4195V36.9378H102.094Z" fill="white"/>
<path d="M106.027 22.5549H120.438L123.124 25.2407V29.7591L121.781 31.102L123.124 32.4449V39.649H120.438V32.4449H108.737V39.649H106.025V22.5565L106.027 22.5549ZM108.737 25.2423V29.7607H120.438V25.2423H108.737Z" fill="white"/>
<path d="M138.757 22.5549L141.443 25.2407V36.9616L138.757 39.6474H127.033L124.346 36.9377V25.2407L127.033 22.5549H138.757ZM127.058 36.9377H138.758V25.2407H127.058V36.9377Z" fill="white"/>
</g>
<defs>
<clipPath id="clip0_4043_155">
<rect width="155.122" height="40" fill="white"/>
</clipPath>
</defs>
</svg>
